<svg viewBox="0 0 90 90" xmlns="http://www.w3.org/2000/svg"><path d="m45 0a45 45 0 1 0 31.82 13.18 45.05 45.05 0 0 0 -31.82-13.18zm-14.91 6.4 13.66 4.86v14.41l-16.75 12.16-13.7-4.45-.4-14.47a41.6 41.6 0 0 1 17.19-12.51zm-19.82 61.07a41.05 41.05 0 0 1 -6.59-20.21l8.85-11.49 13.7 4.45 6.39 19.68-8.46 11.65zm45.35 17.53a41.23 41.23 0 0 1 -21.23 0l-8.2-12 8.46-11.65h20.7l8.47 11.65zm30.7-37.74a41 41 0 0 1 -6.59 20.2l-13.89 4.09-8.46-11.65 6.39-19.68 13.7-4.45zm-9.62-13.88-13.7 4.45-16.75-12.16v-14.41l13.69-4.87a41.35 41.35 0 0 1 14.33 9.34c1 1 1.94 2.06 2.83 3.14z"/></svg>