<svg viewBox="0 0 64 64" xmlns="http://www.w3.org/2000/svg"><path d="m0 0h64v64h-64z" fill="none"/><path d="m24.4 60c0-3.89 2.29-5.25 5-6.9 3.18-1.94 7-4.3 7-13.08 0-1-.41-1.18-.88-1.36-1.3-.53-2.89-1.18-3.07-5.6h-12.71l-3.74 3.71-.3.3h-10.76l1.71-1.71 2.35-2.3h-5.65v-2h5.65l-2.3-2.3-1.76-1.71h10.79l.3.29 3.71 3.72h12.67c.18-4.48 1.77-5.13 3.07-5.66a1.21 1.21 0 0 0 .88-1.4c0-8.78-3.83-11.14-7-13.08-2.66-1.65-5-3.07-5-7h2c0 2.77 1.83 4 4 5.25 3.6 2.24 8 4.89 8 14.79 0 2.3-1 2.71-2.13 3.19-.76.29-1.71.7-1.88 3.83h22.47l-2.24-2.3 1.42-1.34 3.95 4 .71.71-.71.71-3.95 4-1.41-1.42 2.24-2.3h-22.41c.11 3.07 1.06 3.42 1.82 3.77 1.12.48 2.13.83 2.13 3.19 0 9.9-4.36 12.55-8 14.79-2.18 1.3-4 2.42-4 5.19zm-11.5-26.94h-1.12l-2 2h1.22zm-1.12-2h1.12l-1.94-2h-1.18zm4 0h1.18l-2-2h-1.23zm1.18 2h-1.23l-2 2h1.18z"/></svg>