<?xml version="1.0" encoding="utf-8"?>
<!-- Generator: Adobe Illustrator 23.0.4, SVG Export Plug-In . SVG Version: 6.00 Build 0)  -->
<svg version="1.1" id="Capa_1" xmlns="http://www.w3.org/2000/svg" xmlns:xlink="http://www.w3.org/1999/xlink" x="0px" y="0px"
	 viewBox="0 0 612 612" style="enable-background:new 0 0 612 612;" xml:space="preserve">
<style type="text/css">
	.st0{fill:#FFFFFF;stroke:#000000;stroke-miterlimit:10;}
	.st1{fill:#F44336;}
</style>
<circle class="st0" cx="306" cy="306" r="280.8"/>
<g>
	<g>
		<path class="st1" d="M306,612c-28.2,0-55.3-3.7-81.4-11s-50.5-17.6-73.1-30.9s-43.2-29.2-61.8-47.7
			c-18.6-18.6-34.5-39.2-47.7-61.8c-13.3-22.6-23.6-47-30.9-73.1C3.7,361.3,0,334.2,0,306s3.7-55.3,11-81.4s17.6-50.5,30.9-73.1
			s29.2-43.2,47.7-61.8s39.2-34.5,61.8-47.7s47-23.6,73.1-30.9S277.8,0,306,0c42,0,81.7,8.1,119,24.2s69.8,37.9,97.3,65.5
			s49.4,60,65.5,97.3S612,264,612,306c0,28.2-3.7,55.3-11,81.4s-17.6,50.5-30.9,73.1c-13.3,22.6-29.2,43.2-47.7,61.8
			c-18.6,18.6-39.2,34.5-61.8,47.7c-22.6,13.3-47,23.6-73.1,30.9C361.3,608.3,334.2,612,306,612z M453.5,179.9H163.4
			c-2.9,0-5.3,0.9-7.3,2.8s-3.1,4.4-3.1,7.6v32.4c0,1.6,0.6,2.4,1.8,2.4L307.2,312l1.2,0.6c0.8,0,1.4-0.2,1.8-0.6l147.5-86.9
			c0.8-0.4,1.4-0.6,1.8-0.6s1-0.2,1.8-0.6c1.6,0,2.4-0.8,2.4-2.4v-31.2c0-3.3-1-5.8-3.1-7.6S456.3,179.9,453.5,179.9z M245.4,310.3
			c0.4-0.4,0.6-1,0.6-1.8c0-1.2-0.4-1.8-1.2-1.8l-87.5-50.2c-1.2-0.4-2.2-0.4-3.1,0c-0.8,0-1.2,0.6-1.2,1.8v131.6
			c0,1.2,0.6,2,1.8,2.4h1.2c0.8,0,1.2-0.2,1.2-0.6L245.4,310.3z M351.9,320.1c-0.4-1.2-1.4-1.4-3.1-0.6L315.2,339
			c-4.1,2.4-8.4,2.4-12.9,0l-29.4-16.5c-1.2-0.8-2.2-0.8-3.1,0l-112,104c-0.4,0.4-0.6,1.2-0.6,2.4c0,0.4,0.4,1,1.2,1.8
			c2.4,0.8,4.1,1.2,4.9,1.2h287c0.8,0,1.6-0.4,2.4-1.2c0-1.6-0.2-2.6-0.6-3.1L351.9,320.1z M462.1,254h-2.4l-83.2,49.6
			c-0.8,0-1.2,0.6-1.2,1.8c-0.4,0.4-0.2,1,0.6,1.8l83.2,90c0.8,0.8,1.4,1.2,1.8,1.2h1.2c1.2-1.2,1.8-2,1.8-2.4V256.4
			C463.9,255.6,463.3,254.8,462.1,254z"/>
	</g>
</g>
</svg>
