<svg xmlns="http://www.w3.org/2000/svg" width="18" height="18" viewBox="0 0 18 18">
  <path fill="#4B4B4B" fill-rule="evenodd" d="M81.0838279,2.85714286 L66.6294181,2.85714286 C65.9047266,2.85714286 65.3153809,3.41571429 65.3153809,4.1025641 L65.3153809,17.8021978 C65.3153809,18.4890476 65.9047266,19.047619 66.6294181,19.047619 L73.5281137,19.047619 C73.7094508,19.047619 73.856623,18.9081319 73.856623,18.7362637 L73.856623,14.3772894 C73.856623,14.2054212 73.7094508,14.0659341 73.5281137,14.0659341 L72.2140764,14.0659341 C72.0327393,14.0659341 71.8855671,13.9264469 71.8855671,13.7545788 L71.8855671,11.2637363 C71.8855671,11.0918681 72.0327393,10.952381 72.2140764,10.952381 L73.5281137,10.952381 C73.7094508,10.952381 73.856623,10.8128938 73.856623,10.6410256 L73.856623,9.3956044 C73.856623,7.50692308 75.4774879,5.97069597 77.4702254,5.97069597 L79.4412813,5.97069597 C79.6226184,5.97069597 79.7697906,6.11018315 79.7697906,6.28205128 L79.7697906,8.77289377 C79.7697906,8.9447619 79.6226184,9.08424908 79.4412813,9.08424908 L78.1272441,9.08424908 C77.5838897,9.08424908 77.1417161,9.50333333 77.1417161,10.018315 L77.1417161,10.6410256 C77.1417161,10.8128938 77.2888883,10.952381 77.4702254,10.952381 L79.4412813,10.952381 C79.535892,10.952381 79.6252465,10.990989 79.6876633,11.057619 C79.7500801,11.1248718 79.7789889,11.2139194 79.7671625,11.3023443 L79.4386532,13.7931868 C79.4182857,13.9488645 79.2776837,14.0659341 79.112772,14.0659341 L77.4702254,14.0659341 C77.2888883,14.0659341 77.1417161,14.2054212 77.1417161,14.3772894 L77.1417161,18.7362637 C77.1417161,18.9081319 77.2888883,19.047619 77.4702254,19.047619 L81.0838279,19.047619 C81.8085194,19.047619 82.3978651,18.4890476 82.3978651,17.8021978 L82.3978651,4.1025641 C82.3978651,3.41571429 81.8085194,2.85714286 81.0838279,2.85714286" transform="translate(-65 -2)"/>
</svg>
