<svg xmlns="http://www.w3.org/2000/svg" width="18" height="18" viewBox="0 0 18 18">
  <path fill="#4B4B4B" fill-rule="evenodd" d="M146.747042,16.8681319 C146.747042,17.04 146.59987,17.1794872 146.418533,17.1794872 L143.790458,17.1794872 C143.609121,17.1794872 143.461949,17.04 143.461949,16.8681319 L143.461949,12.5091575 C143.461949,11.9941758 143.019775,11.5750916 142.476421,11.5750916 C141.933067,11.5750916 141.490893,11.9941758 141.490893,12.5091575 L141.490893,16.8681319 C141.490893,17.04 141.343721,17.1794872 141.162384,17.1794872 L138.534309,17.1794872 C138.352972,17.1794872 138.2058,17.04 138.2058,16.8681319 L138.2058,9.3956044 C138.2058,9.22373626 138.352972,9.08424908 138.534309,9.08424908 L141.162384,9.08424908 C141.343721,9.08424908 141.490893,9.22373626 141.490893,9.3956044 L141.490893,9.71879121 C142.055272,9.30967033 142.742514,9.08424908 143.461949,9.08424908 C145.273349,9.08424908 146.747042,10.480989 146.747042,12.1978022 L146.747042,16.8681319 Z M135.906235,8.46153846 C135.000863,8.46153846 134.263688,7.76285714 134.263688,6.9047619 C134.263688,6.04666667 135.000863,5.34798535 135.906235,5.34798535 C136.811607,5.34798535 137.548781,6.04666667 137.548781,6.9047619 C137.548781,7.76285714 136.811607,8.46153846 135.906235,8.46153846 Z M137.548781,16.8681319 C137.548781,17.04 137.401609,17.1794872 137.220272,17.1794872 L134.592198,17.1794872 C134.41086,17.1794872 134.263688,17.04 134.263688,16.8681319 L134.263688,9.3956044 C134.263688,9.22373626 134.41086,9.08424908 134.592198,9.08424908 L137.220272,9.08424908 C137.401609,9.08424908 137.548781,9.22373626 137.548781,9.3956044 L137.548781,16.8681319 Z M147.404061,2.85714286 L132.949651,2.85714286 C132.224959,2.85714286 131.635614,3.41571429 131.635614,4.1025641 L131.635614,17.8021978 C131.635614,18.4890476 132.224959,19.047619 132.949651,19.047619 L147.404061,19.047619 C148.128752,19.047619 148.718098,18.4890476 148.718098,17.8021978 L148.718098,4.1025641 C148.718098,3.41571429 148.128752,2.85714286 147.404061,2.85714286 Z" transform="translate(-131 -2)"/>
</svg>
