<svg viewBox="0 0 75.88 74.26" xmlns="http://www.w3.org/2000/svg"><path d="m68.93 13.57a24.39 24.39 0 0 0 -19.07-6.93 30.71 30.71 0 0 0 -19.74 9.13c-7.15 7.15-10.43 16.9-8.77 26.1 0 .23 1 6.94-2.85 10.81l-9.67 9.68a2 2 0 0 0 0 2.83l8.48 8.48a2 2 0 0 0 1.42.59 2 2 0 0 0 1.41-.59l9.67-9.67c3.87-3.88 10.57-2.88 10.81-2.85 9.2 1.66 19-1.62 26.1-8.77 11.28-11.31 12.28-28.72 2.21-38.81zm-43.66 27.6a22.33 22.33 0 0 1 -.33-5.1l5.06 5.08-4.63 4.63a19.22 19.22 0 0 0 -.1-4.61zm-6.54 28.26-5.66-5.66 19.8-19.77 5.66 5.66zm22.6-12.22a19.23 19.23 0 0 0 -4.61-.14l4.63-4.63 5.08 5.08a22.32 22.32 0 0 1 -5.1-.31zm22.57-7.66a27.43 27.43 0 0 1 -12.55 7.25l-25.65-25.65a27.39 27.39 0 0 1 7.3-12.55 26.75 26.75 0 0 1 17.15-8 20.47 20.47 0 0 1 16 5.77c8.48 8.56 7.5 23.43-2.25 33.18z"/><path d="m20 10a10 10 0 1 0 -10 10 10 10 0 0 0 10-10zm-16 0a6 6 0 1 1 6 6 6 6 0 0 1 -6-6z"/></svg>