<svg viewBox="0 0 95 55.23" xmlns="http://www.w3.org/2000/svg"><path d="m89.85 30.19-1.2-4-4.65-15.79c-.2-.69-.37-1.41-.55-2.14a27.53 27.53 0 0 0 -1.23-4.11 2.94 2.94 0 0 0 -3.09-1.86h-1-.85-2.07a36.21 36.21 0 0 1 -4.76-.26c-.74-.1-1.79-.3-3-.53a64.27 64.27 0 0 0 -11.39-1.34q-7.06 0-8.72 3.69c-1.15-2.56-4.29-3.85-9.34-3.85a55.72 55.72 0 0 0 -7.58.65l-.94.12c-1.2.15-2.41.34-3.62.53a49.34 49.34 0 0 1 -9.53.87c-2.75-.11-3.58.93-4.43 3.26a26.31 26.31 0 0 0 -1 3.68c-.19.86-.38 1.76-.63 2.61-.38 1.3-.74 2.6-1.11 3.91-.71 2.56-1.46 5.21-2.31 7.78l-5.85 19.93c-.07.24-.14.49-.23.75-.55 1.76-1.25 3.91-.31 5.26a2.62 2.62 0 0 0 2.19 1 33.64 33.64 0 0 0 5.35-.48c.92-.13 1.87-.26 2.77-.34 2.13-.2 4.3-.51 6.4-.8a69.91 69.91 0 0 1 12.4-1 20.38 20.38 0 0 1 5 .63 10.56 10.56 0 0 1 5.43 3.29 9.85 9.85 0 0 1 .68 1 4.86 4.86 0 0 0 2.65 2.35 7.38 7.38 0 0 0 1.84.2c.61 0 1.25 0 1.88-.09a17.89 17.89 0 0 1 2-.07h.68c1.45 0 3.26-.21 4.33-1.87.26-.39.46-.77.66-1.13a5.48 5.48 0 0 1 1.79-2.23 9.47 9.47 0 0 1 4-1.46 41.11 41.11 0 0 1 5.76-.35c2.56 0 5.17.17 7.69.33l3.06.19a32 32 0 0 1 4.92.77 38.22 38.22 0 0 0 4.77.77l2.2.16 1.91.14a4 4 0 0 0 .52 0 5.69 5.69 0 0 0 3.15-.76 1.65 1.65 0 0 0 .51-.6c.17-.46-.49-3.19-5.15-18.81zm-.51 15.28c-.69-.09-1.84-.3-3.19-.54-5-.89-13.38-2.39-19.64-2.39a26.22 26.22 0 0 0 -3.54.21c-.6.08-1.18.13-1.74.17a9.89 9.89 0 0 0 -4.82 1.24 26 26 0 0 0 -4.41 3.49 4.83 4.83 0 0 1 -3.75 1.29c-.55 0-1.12 0-1.71-.08h-.51c-.78 0-.78 0-1-.33-.11-.13-.26-.3-.46-.51l-.4-.4c-1.7-1.76-3.18-3.27-5.76-4a23.65 23.65 0 0 0 -4.3-.62c-.71-.06-1.4-.12-2.06-.21a26.22 26.22 0 0 0 -3.54-.21c-6.27 0-14.64 1.5-19.64 2.39-1.35.24-2.5.44-3.19.54 1.75-5.4 9.9-35.51 10.88-39.18.85-.07 2.24-.34 4.08-.69a75.75 75.75 0 0 1 13.75-1.78h1.52a16.63 16.63 0 0 1 5.41.65 8.28 8.28 0 0 1 3.92 3.78c0 1 .11 2.16.17 3.48.36 7.59.71 14 1.21 15.52a.51.51 0 0 0 .42.34l.58.05a.49.49 0 0 0 .46-.21c.35-.51.79-3.9 1.8-18.77l.19-.42a7.22 7.22 0 0 1 1.44-2.55c2.42-1.87 6.62-1.87 9.12-1.87a75.75 75.75 0 0 1 13.75 1.78c1.82.35 3.21.62 4.08.69.97 3.67 9.12 33.78 10.88 39.14z"/></svg>